<svg width="1440" height="126" viewBox="0 0 1440 126" fill="none" xmlns="http://www.w3.org/2000/svg">
<g opacity="0.5">
<path d="M24.5194 22.9966L10.4019 10.3382C10.1061 10.073 9.63857 10.1085 9.39888 10.4304C6.53975 14.2428 7.31563 19.9573 11.3042 23.5336C15.2927 27.1099 21.0565 27.2615 24.5368 24.0038C24.8294 23.7294 24.8152 23.2619 24.5194 22.9966Z" fill="white"/>
<path d="M97.6105 109.398L111.728 122.056C112.024 122.322 112.491 122.286 112.731 121.964C115.59 118.152 114.814 112.437 110.826 108.861C106.837 105.285 101.073 105.133 97.5931 108.391C97.3005 108.665 97.3147 109.133 97.6105 109.398Z" fill="white"/>
<path d="M113.539 47.5561L98.857 35.557C98.5494 35.3056 98.0839 35.3625 97.8592 35.695C95.1775 39.6342 96.2141 45.3072 100.362 48.6972C104.51 52.0873 110.275 51.975 113.602 48.5613C113.882 48.2738 113.847 47.8075 113.539 47.5561Z" fill="white"/>
<path d="M18.2988 89.2987L31.6531 75.8376C31.9329 75.5555 31.921 75.0868 31.6116 74.8312C27.9483 71.7834 22.202 72.2701 18.4291 76.0732C14.6561 79.8763 14.214 85.6251 17.2921 89.2653C17.5514 89.5714 18.019 89.5808 18.2988 89.2987Z" fill="white"/>
<path d="M15.4577 58.6613C12.6737 58.957 9.93613 54.6694 9.34303 49.0848C8.74993 43.5002 10.5259 38.7333 13.3099 38.4377C16.0938 38.142 18.8314 42.4296 19.4245 48.0142C20.0176 53.5988 18.2416 58.3657 15.4577 58.6613Z" fill="white"/>
<path d="M108.286 68.2908C111.069 67.9951 113.807 72.2827 114.4 77.8673C114.993 83.4519 113.217 88.2188 110.433 88.5145C107.649 88.8101 104.912 84.5226 104.319 78.938C103.726 73.3534 105.502 68.5865 108.286 68.2908Z" fill="white"/>
<path d="M77.9277 15.4529C79.7381 16.7543 78.5484 21.5059 75.2704 26.066C71.9925 30.6262 67.8676 33.268 66.0573 31.9666C64.2469 30.6653 65.4366 25.9136 68.7145 21.3535C71.9924 16.7934 76.1173 14.1516 77.9277 15.4529Z" fill="white"/>
<path d="M50.9892 92.9478C48.7728 92.7065 47.4688 87.9849 48.0768 82.4019C48.6848 76.8189 50.9744 72.4886 53.1909 72.73C55.4073 72.9713 56.7112 77.6929 56.1033 83.2759C55.4953 88.8589 53.2057 93.1892 50.9892 92.9478Z" fill="white"/>
<path fill-rule="evenodd" clip-rule="evenodd" d="M52.1648 45.3131C53.0922 46.6099 52.7919 48.4105 51.4941 49.3348C48.5716 51.4163 44.6386 52.0343 40.9135 50.824C37.1884 49.6136 34.3704 46.8015 33.2294 43.4006C32.7226 41.89 33.5379 40.2568 35.0503 39.7526C36.5628 39.2484 38.1997 40.0643 38.7066 41.5749C39.245 43.1797 40.6497 44.6758 42.6952 45.3404C44.7414 46.0052 46.7571 45.6206 48.1356 44.6388C49.4334 43.7144 51.2374 44.0163 52.1648 45.3131Z" fill="white"/>
<path fill-rule="evenodd" clip-rule="evenodd" d="M73.2884 80.7997C72.361 79.5029 72.6612 77.7023 73.959 76.778C76.8816 74.6965 80.8146 74.0785 84.5396 75.2888C88.2647 76.4991 91.0827 79.3113 92.2237 82.7122C92.7305 84.2228 91.9153 85.856 90.4028 86.3602C88.8903 86.8644 87.2534 86.0485 86.7466 84.5379C86.2082 82.9331 84.8034 81.437 82.7579 80.7724C80.7117 80.1076 78.696 80.4922 77.3175 81.474C76.0197 82.3984 74.2158 82.0964 73.2884 80.7997Z" fill="white"/>
<path fill-rule="evenodd" clip-rule="evenodd" d="M102.136 12.6122C101.881 11.0384 102.95 9.5586 104.523 9.30697C108.066 8.74031 111.864 9.93371 114.664 12.6728C117.464 15.4119 118.739 19.1831 118.251 22.7369C118.034 24.3154 116.578 25.4165 114.999 25.1964C113.42 24.9762 112.316 23.5181 112.533 21.9396C112.763 20.2627 112.169 18.2983 110.632 16.7942C109.094 15.2896 107.117 14.7388 105.446 15.0061C103.872 15.2578 102.39 14.186 102.136 12.6122Z" fill="white"/>
<path fill-rule="evenodd" clip-rule="evenodd" d="M57.349 113.027C58.4763 114.154 58.4749 115.979 57.3459 117.104C54.8037 119.636 51.025 120.889 47.152 120.305C43.279 119.721 40.0386 117.409 38.3561 114.24C37.6088 112.833 38.1456 111.089 39.5551 110.344C40.9646 109.599 42.713 110.135 43.4603 111.543C44.2543 113.038 45.885 114.283 48.0117 114.604C50.1392 114.925 52.0647 114.215 53.2639 113.021C54.3928 111.897 56.2218 111.899 57.349 113.027Z" fill="white"/>
<path d="M40.3618 14.979C39.6102 13.8585 39.9093 12.341 41.0298 11.5894L52.8985 3.62881C54.019 2.87727 55.5366 3.17636 56.2881 4.29685L58.6355 7.79659C59.387 8.91709 59.0879 10.4347 57.9674 11.1862L46.0987 19.1468C44.9782 19.8984 43.4607 19.5993 42.7091 18.4788L40.3618 14.979Z" fill="white"/>
<path d="M67.1793 101.746C66.8915 100.427 67.7268 99.1256 69.0449 98.8378L83.0072 95.7895C84.3253 95.5017 85.6272 96.337 85.9149 97.6552L86.8138 101.772C87.1016 103.09 86.2663 104.392 84.9482 104.68L70.9859 107.728C69.6678 108.016 68.3659 107.181 68.0781 105.863L67.1793 101.746Z" fill="white"/>
<path d="M81.2479 62.5706C80.241 63.4687 78.6968 63.3806 77.7987 62.3737L68.2857 51.7088C67.3876 50.702 67.4757 49.1577 68.4826 48.2596L71.6274 45.4545C72.6342 44.5564 74.1785 44.6446 75.0766 45.6514L84.5895 56.3163C85.4876 57.3232 85.3995 58.8674 84.3926 59.7655L81.2479 62.5706Z" fill="white"/>
<path d="M14.8296 99.779C16.1593 99.5508 17.4223 100.444 17.6506 101.773L20.0685 115.859C20.2967 117.188 19.4038 118.451 18.0741 118.68L13.9208 119.392C12.591 119.621 11.328 118.728 11.0997 117.398L8.68189 103.313C8.45362 101.983 9.34655 100.72 10.6763 100.492L14.8296 99.779Z" fill="white"/>
<path d="M150.519 22.9966L136.402 10.3382C136.106 10.073 135.639 10.1085 135.399 10.4304C132.54 14.2428 133.316 19.9573 137.304 23.5336C141.293 27.1099 147.056 27.2615 150.537 24.0038C150.829 23.7294 150.815 23.2619 150.519 22.9966Z" fill="white"/>
<path d="M223.61 109.398L237.728 122.056C238.024 122.322 238.491 122.286 238.731 121.964C241.59 118.152 240.814 112.437 236.826 108.861C232.837 105.285 227.073 105.133 223.593 108.391C223.3 108.665 223.315 109.133 223.61 109.398Z" fill="white"/>
<path d="M239.539 47.5561L224.857 35.557C224.549 35.3056 224.084 35.3625 223.859 35.695C221.178 39.6342 222.214 45.3072 226.362 48.6972C230.51 52.0873 236.275 51.975 239.602 48.5613C239.882 48.2738 239.847 47.8075 239.539 47.5561Z" fill="white"/>
<path d="M144.299 89.2987L157.653 75.8376C157.933 75.5555 157.921 75.0868 157.612 74.8312C153.948 71.7834 148.202 72.2701 144.429 76.0732C140.656 79.8763 140.214 85.6251 143.292 89.2653C143.551 89.5714 144.019 89.5808 144.299 89.2987Z" fill="white"/>
<path d="M141.458 58.6613C138.674 58.957 135.936 54.6694 135.343 49.0848C134.75 43.5002 136.526 38.7333 139.31 38.4377C142.094 38.142 144.831 42.4296 145.424 48.0142C146.018 53.5988 144.242 58.3657 141.458 58.6613Z" fill="white"/>
<path d="M234.286 68.2908C237.069 67.9951 239.807 72.2827 240.4 77.8673C240.993 83.4519 239.217 88.2188 236.433 88.5145C233.649 88.8101 230.912 84.5226 230.319 78.938C229.726 73.3534 231.502 68.5865 234.286 68.2908Z" fill="white"/>
<path d="M203.928 15.4529C205.738 16.7543 204.548 21.5059 201.27 26.066C197.993 30.6262 193.868 33.268 192.057 31.9666C190.247 30.6653 191.437 25.9136 194.715 21.3535C197.992 16.7934 202.117 14.1516 203.928 15.4529Z" fill="white"/>
<path d="M176.989 92.9478C174.773 92.7065 173.469 87.9849 174.077 82.4019C174.685 76.8189 176.974 72.4886 179.191 72.73C181.407 72.9713 182.711 77.6929 182.103 83.2759C181.495 88.8589 179.206 93.1892 176.989 92.9478Z" fill="white"/>
<path fill-rule="evenodd" clip-rule="evenodd" d="M178.165 45.3131C179.092 46.6099 178.792 48.4105 177.494 49.3348C174.572 51.4163 170.639 52.0343 166.914 50.824C163.188 49.6136 160.37 46.8015 159.229 43.4006C158.723 41.89 159.538 40.2568 161.05 39.7526C162.563 39.2484 164.2 40.0643 164.707 41.5749C165.245 43.1797 166.65 44.6758 168.695 45.3404C170.741 46.0052 172.757 45.6206 174.136 44.6388C175.433 43.7144 177.237 44.0163 178.165 45.3131Z" fill="white"/>
<path fill-rule="evenodd" clip-rule="evenodd" d="M199.288 80.7997C198.361 79.5029 198.661 77.7023 199.959 76.778C202.882 74.6965 206.815 74.0785 210.54 75.2888C214.265 76.4991 217.083 79.3113 218.224 82.7122C218.731 84.2228 217.915 85.856 216.403 86.3602C214.89 86.8644 213.253 86.0485 212.747 84.5379C212.208 82.9331 210.803 81.437 208.758 80.7724C206.712 80.1076 204.696 80.4922 203.317 81.474C202.02 82.3984 200.216 82.0964 199.288 80.7997Z" fill="white"/>
<path fill-rule="evenodd" clip-rule="evenodd" d="M228.136 12.6122C227.881 11.0384 228.95 9.5586 230.523 9.30697C234.066 8.74031 237.864 9.93371 240.664 12.6728C243.464 15.4119 244.739 19.1831 244.251 22.7369C244.034 24.3154 242.578 25.4165 240.999 25.1964C239.42 24.9762 238.316 23.5181 238.533 21.9396C238.763 20.2627 238.169 18.2983 236.632 16.7942C235.094 15.2896 233.117 14.7388 231.446 15.0061C229.872 15.2578 228.39 14.186 228.136 12.6122Z" fill="white"/>
<path fill-rule="evenodd" clip-rule="evenodd" d="M183.349 113.027C184.476 114.154 184.475 115.979 183.346 117.104C180.804 119.636 177.025 120.889 173.152 120.305C169.279 119.721 166.039 117.409 164.356 114.24C163.609 112.833 164.146 111.089 165.555 110.344C166.965 109.599 168.713 110.135 169.46 111.543C170.254 113.038 171.885 114.283 174.012 114.604C176.139 114.925 178.065 114.215 179.264 113.021C180.393 111.897 182.222 111.899 183.349 113.027Z" fill="white"/>
<path d="M166.362 14.979C165.61 13.8585 165.909 12.341 167.03 11.5894L178.898 3.62881C180.019 2.87727 181.537 3.17636 182.288 4.29685L184.635 7.79659C185.387 8.91709 185.088 10.4347 183.967 11.1862L172.099 19.1468C170.978 19.8984 169.461 19.5993 168.709 18.4788L166.362 14.979Z" fill="white"/>
<path d="M193.179 101.746C192.891 100.427 193.727 99.1256 195.045 98.8378L209.007 95.7895C210.325 95.5017 211.627 96.337 211.915 97.6552L212.814 101.772C213.102 103.09 212.266 104.392 210.948 104.68L196.986 107.728C195.668 108.016 194.366 107.181 194.078 105.863L193.179 101.746Z" fill="white"/>
<path d="M207.248 62.5706C206.241 63.4687 204.697 63.3806 203.799 62.3737L194.286 51.7088C193.388 50.702 193.476 49.1577 194.483 48.2596L197.627 45.4545C198.634 44.5564 200.178 44.6446 201.077 45.6514L210.59 56.3163C211.488 57.3232 211.399 58.8674 210.393 59.7655L207.248 62.5706Z" fill="white"/>
<path d="M140.83 99.779C142.159 99.5508 143.422 100.444 143.651 101.773L146.068 115.859C146.297 117.188 145.404 118.451 144.074 118.68L139.921 119.392C138.591 119.621 137.328 118.728 137.1 117.398L134.682 103.313C134.454 101.983 135.347 100.72 136.676 100.492L140.83 99.779Z" fill="white"/>
<path d="M276.519 22.9966L262.402 10.3382C262.106 10.073 261.639 10.1085 261.399 10.4304C258.54 14.2428 259.316 19.9573 263.304 23.5336C267.293 27.1099 273.056 27.2615 276.537 24.0038C276.829 23.7294 276.815 23.2619 276.519 22.9966Z" fill="white"/>
<path d="M349.61 109.398L363.728 122.056C364.024 122.322 364.491 122.286 364.731 121.964C367.59 118.152 366.814 112.437 362.826 108.861C358.837 105.285 353.073 105.133 349.593 108.391C349.3 108.665 349.315 109.133 349.61 109.398Z" fill="white"/>
<path d="M365.539 47.5561L350.857 35.557C350.549 35.3056 350.084 35.3625 349.859 35.695C347.178 39.6342 348.214 45.3072 352.362 48.6972C356.51 52.0873 362.275 51.975 365.602 48.5613C365.882 48.2738 365.847 47.8075 365.539 47.5561Z" fill="white"/>
<path d="M270.299 89.2987L283.653 75.8376C283.933 75.5555 283.921 75.0868 283.612 74.8312C279.948 71.7834 274.202 72.2701 270.429 76.0732C266.656 79.8763 266.214 85.6251 269.292 89.2653C269.551 89.5714 270.019 89.5808 270.299 89.2987Z" fill="white"/>
<path d="M267.458 58.6613C264.674 58.957 261.936 54.6694 261.343 49.0848C260.75 43.5002 262.526 38.7333 265.31 38.4377C268.094 38.142 270.831 42.4296 271.424 48.0142C272.018 53.5988 270.242 58.3657 267.458 58.6613Z" fill="white"/>
<path d="M360.286 68.2908C363.069 67.9951 365.807 72.2827 366.4 77.8673C366.993 83.4519 365.217 88.2188 362.433 88.5145C359.649 88.8101 356.912 84.5226 356.319 78.938C355.726 73.3534 357.502 68.5865 360.286 68.2908Z" fill="white"/>
<path d="M329.928 15.4529C331.738 16.7543 330.548 21.5059 327.27 26.066C323.993 30.6262 319.868 33.268 318.057 31.9666C316.247 30.6653 317.437 25.9136 320.715 21.3535C323.992 16.7934 328.117 14.1516 329.928 15.4529Z" fill="white"/>
<path d="M302.989 92.9478C300.773 92.7065 299.469 87.9849 300.077 82.4019C300.685 76.8189 302.974 72.4886 305.191 72.73C307.407 72.9713 308.711 77.6929 308.103 83.2759C307.495 88.8589 305.206 93.1892 302.989 92.9478Z" fill="white"/>
<path fill-rule="evenodd" clip-rule="evenodd" d="M304.165 45.3131C305.092 46.6099 304.792 48.4105 303.494 49.3348C300.572 51.4163 296.639 52.0343 292.914 50.824C289.188 49.6136 286.37 46.8015 285.229 43.4006C284.723 41.89 285.538 40.2568 287.05 39.7526C288.563 39.2484 290.2 40.0643 290.707 41.5749C291.245 43.1797 292.65 44.6758 294.695 45.3404C296.741 46.0052 298.757 45.6206 300.136 44.6388C301.433 43.7144 303.237 44.0163 304.165 45.3131Z" fill="white"/>
<path fill-rule="evenodd" clip-rule="evenodd" d="M325.288 80.7997C324.361 79.5029 324.661 77.7023 325.959 76.778C328.882 74.6965 332.815 74.0785 336.54 75.2888C340.265 76.4991 343.083 79.3113 344.224 82.7122C344.731 84.2228 343.915 85.856 342.403 86.3602C340.89 86.8644 339.253 86.0485 338.747 84.5379C338.208 82.9331 336.803 81.437 334.758 80.7724C332.712 80.1076 330.696 80.4922 329.317 81.474C328.02 82.3984 326.216 82.0964 325.288 80.7997Z" fill="white"/>
<path fill-rule="evenodd" clip-rule="evenodd" d="M354.136 12.6122C353.881 11.0384 354.95 9.5586 356.523 9.30697C360.066 8.74031 363.864 9.93371 366.664 12.6728C369.464 15.4119 370.739 19.1831 370.251 22.7369C370.034 24.3154 368.578 25.4165 366.999 25.1964C365.42 24.9762 364.316 23.5181 364.533 21.9396C364.763 20.2627 364.169 18.2983 362.632 16.7942C361.094 15.2896 359.117 14.7388 357.446 15.0061C355.872 15.2578 354.39 14.186 354.136 12.6122Z" fill="white"/>
<path fill-rule="evenodd" clip-rule="evenodd" d="M309.349 113.027C310.476 114.154 310.475 115.979 309.346 117.104C306.804 119.636 303.025 120.889 299.152 120.305C295.279 119.721 292.039 117.409 290.356 114.24C289.609 112.833 290.146 111.089 291.555 110.344C292.965 109.599 294.713 110.135 295.46 111.543C296.254 113.038 297.885 114.283 300.012 114.604C302.139 114.925 304.065 114.215 305.264 113.021C306.393 111.897 308.222 111.899 309.349 113.027Z" fill="white"/>
<path d="M292.362 14.979C291.61 13.8585 291.909 12.341 293.03 11.5894L304.898 3.62881C306.019 2.87727 307.537 3.17636 308.288 4.29685L310.635 7.79659C311.387 8.91709 311.088 10.4347 309.967 11.1862L298.099 19.1468C296.978 19.8984 295.461 19.5993 294.709 18.4788L292.362 14.979Z" fill="white"/>
<path d="M319.179 101.746C318.891 100.427 319.727 99.1256 321.045 98.8378L335.007 95.7895C336.325 95.5017 337.627 96.337 337.915 97.6552L338.814 101.772C339.102 103.09 338.266 104.392 336.948 104.68L322.986 107.728C321.668 108.016 320.366 107.181 320.078 105.863L319.179 101.746Z" fill="white"/>
<path d="M333.248 62.5706C332.241 63.4687 330.697 63.3806 329.799 62.3737L320.286 51.7088C319.388 50.702 319.476 49.1577 320.483 48.2596L323.627 45.4545C324.634 44.5564 326.178 44.6446 327.077 45.6514L336.59 56.3163C337.488 57.3232 337.399 58.8674 336.393 59.7655L333.248 62.5706Z" fill="white"/>
<path d="M266.83 99.779C268.159 99.5508 269.422 100.444 269.651 101.773L272.068 115.859C272.297 117.188 271.404 118.451 270.074 118.68L265.921 119.392C264.591 119.621 263.328 118.728 263.1 117.398L260.682 103.313C260.454 101.983 261.347 100.72 262.676 100.492L266.83 99.779Z" fill="white"/>
<path d="M402.519 22.9966L388.402 10.3382C388.106 10.073 387.639 10.1085 387.399 10.4304C384.54 14.2428 385.316 19.9573 389.304 23.5336C393.293 27.1099 399.056 27.2615 402.537 24.0038C402.829 23.7294 402.815 23.2619 402.519 22.9966Z" fill="white"/>
<path d="M475.61 109.398L489.728 122.056C490.024 122.322 490.491 122.286 490.731 121.964C493.59 118.152 492.814 112.437 488.826 108.861C484.837 105.285 479.073 105.133 475.593 108.391C475.3 108.665 475.315 109.133 475.61 109.398Z" fill="white"/>
<path d="M491.539 47.5561L476.857 35.557C476.549 35.3056 476.084 35.3625 475.859 35.695C473.178 39.6342 474.214 45.3072 478.362 48.6972C482.51 52.0873 488.275 51.975 491.602 48.5613C491.882 48.2738 491.847 47.8075 491.539 47.5561Z" fill="white"/>
<path d="M396.299 89.2987L409.653 75.8376C409.933 75.5555 409.921 75.0868 409.612 74.8312C405.948 71.7834 400.202 72.2701 396.429 76.0732C392.656 79.8763 392.214 85.6251 395.292 89.2653C395.551 89.5714 396.019 89.5808 396.299 89.2987Z" fill="white"/>
<path d="M393.458 58.6613C390.674 58.957 387.936 54.6694 387.343 49.0848C386.75 43.5002 388.526 38.7333 391.31 38.4377C394.094 38.142 396.831 42.4296 397.424 48.0142C398.018 53.5988 396.242 58.3657 393.458 58.6613Z" fill="white"/>
<path d="M486.286 68.2908C489.069 67.9951 491.807 72.2827 492.4 77.8673C492.993 83.4519 491.217 88.2188 488.433 88.5145C485.649 88.8101 482.912 84.5226 482.319 78.938C481.726 73.3534 483.502 68.5865 486.286 68.2908Z" fill="white"/>
<path d="M455.928 15.4529C457.738 16.7543 456.548 21.5059 453.27 26.066C449.993 30.6262 445.868 33.268 444.057 31.9666C442.247 30.6653 443.437 25.9136 446.715 21.3535C449.992 16.7934 454.117 14.1516 455.928 15.4529Z" fill="white"/>
<path d="M428.989 92.9478C426.773 92.7065 425.469 87.9849 426.077 82.4019C426.685 76.8189 428.974 72.4886 431.191 72.73C433.407 72.9713 434.711 77.6929 434.103 83.2759C433.495 88.8589 431.206 93.1892 428.989 92.9478Z" fill="white"/>
<path fill-rule="evenodd" clip-rule="evenodd" d="M430.165 45.3131C431.092 46.6099 430.792 48.4105 429.494 49.3348C426.572 51.4163 422.639 52.0343 418.914 50.824C415.188 49.6136 412.37 46.8015 411.229 43.4006C410.723 41.89 411.538 40.2568 413.05 39.7526C414.563 39.2484 416.2 40.0643 416.707 41.5749C417.245 43.1797 418.65 44.6758 420.695 45.3404C422.741 46.0052 424.757 45.6206 426.136 44.6388C427.433 43.7144 429.237 44.0163 430.165 45.3131Z" fill="white"/>
<path fill-rule="evenodd" clip-rule="evenodd" d="M451.288 80.7997C450.361 79.5029 450.661 77.7023 451.959 76.778C454.882 74.6965 458.815 74.0785 462.54 75.2888C466.265 76.4991 469.083 79.3113 470.224 82.7122C470.731 84.2228 469.915 85.856 468.403 86.3602C466.89 86.8644 465.253 86.0485 464.747 84.5379C464.208 82.9331 462.803 81.437 460.758 80.7724C458.712 80.1076 456.696 80.4922 455.317 81.474C454.02 82.3984 452.216 82.0964 451.288 80.7997Z" fill="white"/>
<path fill-rule="evenodd" clip-rule="evenodd" d="M480.136 12.6122C479.881 11.0384 480.95 9.5586 482.523 9.30697C486.066 8.74031 489.864 9.93371 492.664 12.6728C495.464 15.4119 496.739 19.1831 496.251 22.7369C496.034 24.3154 494.578 25.4165 492.999 25.1964C491.42 24.9762 490.316 23.5181 490.533 21.9396C490.763 20.2627 490.169 18.2983 488.632 16.7942C487.094 15.2896 485.117 14.7388 483.446 15.0061C481.872 15.2578 480.39 14.186 480.136 12.6122Z" fill="white"/>
<path fill-rule="evenodd" clip-rule="evenodd" d="M435.349 113.027C436.476 114.154 436.475 115.979 435.346 117.104C432.804 119.636 429.025 120.889 425.152 120.305C421.279 119.721 418.039 117.409 416.356 114.24C415.609 112.833 416.146 111.089 417.555 110.344C418.965 109.599 420.713 110.135 421.46 111.543C422.254 113.038 423.885 114.283 426.012 114.604C428.139 114.925 430.065 114.215 431.264 113.021C432.393 111.897 434.222 111.899 435.349 113.027Z" fill="white"/>
<path d="M418.362 14.979C417.61 13.8585 417.909 12.341 419.03 11.5894L430.898 3.62881C432.019 2.87727 433.537 3.17636 434.288 4.29685L436.635 7.79659C437.387 8.91709 437.088 10.4347 435.967 11.1862L424.099 19.1468C422.978 19.8984 421.461 19.5993 420.709 18.4788L418.362 14.979Z" fill="white"/>
<path d="M445.179 101.746C444.891 100.427 445.727 99.1256 447.045 98.8378L461.007 95.7895C462.325 95.5017 463.627 96.337 463.915 97.6552L464.814 101.772C465.102 103.09 464.266 104.392 462.948 104.68L448.986 107.728C447.668 108.016 446.366 107.181 446.078 105.863L445.179 101.746Z" fill="white"/>
<path d="M459.248 62.5706C458.241 63.4687 456.697 63.3806 455.799 62.3737L446.286 51.7088C445.388 50.702 445.476 49.1577 446.483 48.2596L449.627 45.4545C450.634 44.5564 452.178 44.6446 453.077 45.6514L462.59 56.3163C463.488 57.3232 463.399 58.8674 462.393 59.7655L459.248 62.5706Z" fill="white"/>
<path d="M392.83 99.779C394.159 99.5508 395.422 100.444 395.651 101.773L398.068 115.859C398.297 117.188 397.404 118.451 396.074 118.68L391.921 119.392C390.591 119.621 389.328 118.728 389.1 117.398L386.682 103.313C386.454 101.983 387.347 100.72 388.676 100.492L392.83 99.779Z" fill="white"/>
<path d="M528.519 22.9966L514.402 10.3382C514.106 10.073 513.639 10.1085 513.399 10.4304C510.54 14.2428 511.316 19.9573 515.304 23.5336C519.293 27.1099 525.056 27.2615 528.537 24.0038C528.829 23.7294 528.815 23.2619 528.519 22.9966Z" fill="white"/>
<path d="M601.61 109.398L615.728 122.056C616.024 122.322 616.491 122.286 616.731 121.964C619.59 118.152 618.814 112.437 614.826 108.861C610.837 105.285 605.073 105.133 601.593 108.391C601.3 108.665 601.315 109.133 601.61 109.398Z" fill="white"/>
<path d="M617.539 47.5561L602.857 35.557C602.549 35.3056 602.084 35.3625 601.859 35.695C599.178 39.6342 600.214 45.3072 604.362 48.6972C608.51 52.0873 614.275 51.975 617.602 48.5613C617.882 48.2738 617.847 47.8075 617.539 47.5561Z" fill="white"/>
<path d="M522.299 89.2987L535.653 75.8376C535.933 75.5555 535.921 75.0868 535.612 74.8312C531.948 71.7834 526.202 72.2701 522.429 76.0732C518.656 79.8763 518.214 85.6251 521.292 89.2653C521.551 89.5714 522.019 89.5808 522.299 89.2987Z" fill="white"/>
<path d="M519.458 58.6613C516.674 58.957 513.936 54.6694 513.343 49.0848C512.75 43.5002 514.526 38.7333 517.31 38.4377C520.094 38.142 522.831 42.4296 523.424 48.0142C524.018 53.5988 522.242 58.3657 519.458 58.6613Z" fill="white"/>
<path d="M612.286 68.2908C615.069 67.9951 617.807 72.2827 618.4 77.8673C618.993 83.4519 617.217 88.2188 614.433 88.5145C611.649 88.8101 608.912 84.5226 608.319 78.938C607.726 73.3534 609.502 68.5865 612.286 68.2908Z" fill="white"/>
<path d="M581.928 15.4529C583.738 16.7543 582.548 21.5059 579.27 26.066C575.993 30.6262 571.868 33.268 570.057 31.9666C568.247 30.6653 569.437 25.9136 572.715 21.3535C575.992 16.7934 580.117 14.1516 581.928 15.4529Z" fill="white"/>
<path d="M554.989 92.9478C552.773 92.7065 551.469 87.9849 552.077 82.4019C552.685 76.8189 554.974 72.4886 557.191 72.73C559.407 72.9713 560.711 77.6929 560.103 83.2759C559.495 88.8589 557.206 93.1892 554.989 92.9478Z" fill="white"/>
<path fill-rule="evenodd" clip-rule="evenodd" d="M556.165 45.3131C557.092 46.6099 556.792 48.4105 555.494 49.3348C552.572 51.4163 548.639 52.0343 544.914 50.824C541.188 49.6136 538.37 46.8015 537.229 43.4006C536.723 41.89 537.538 40.2568 539.05 39.7526C540.563 39.2484 542.2 40.0643 542.707 41.5749C543.245 43.1797 544.65 44.6758 546.695 45.3404C548.741 46.0052 550.757 45.6206 552.136 44.6388C553.433 43.7144 555.237 44.0163 556.165 45.3131Z" fill="white"/>
<path fill-rule="evenodd" clip-rule="evenodd" d="M577.288 80.7997C576.361 79.5029 576.661 77.7023 577.959 76.778C580.882 74.6965 584.815 74.0785 588.54 75.2888C592.265 76.4991 595.083 79.3113 596.224 82.7122C596.731 84.2228 595.915 85.856 594.403 86.3602C592.89 86.8644 591.253 86.0485 590.747 84.5379C590.208 82.9331 588.803 81.437 586.758 80.7724C584.712 80.1076 582.696 80.4922 581.317 81.474C580.02 82.3984 578.216 82.0964 577.288 80.7997Z" fill="white"/>
<path fill-rule="evenodd" clip-rule="evenodd" d="M606.136 12.6122C605.881 11.0384 606.95 9.5586 608.523 9.30697C612.066 8.74031 615.864 9.93371 618.664 12.6728C621.464 15.4119 622.739 19.1831 622.251 22.7369C622.034 24.3154 620.578 25.4165 618.999 25.1964C617.42 24.9762 616.316 23.5181 616.533 21.9396C616.763 20.2627 616.169 18.2983 614.632 16.7942C613.094 15.2896 611.117 14.7388 609.446 15.0061C607.872 15.2578 606.39 14.186 606.136 12.6122Z" fill="white"/>
<path fill-rule="evenodd" clip-rule="evenodd" d="M561.349 113.027C562.476 114.154 562.475 115.979 561.346 117.104C558.804 119.636 555.025 120.889 551.152 120.305C547.279 119.721 544.039 117.409 542.356 114.24C541.609 112.833 542.146 111.089 543.555 110.344C544.965 109.599 546.713 110.135 547.46 111.543C548.254 113.038 549.885 114.283 552.012 114.604C554.139 114.925 556.065 114.215 557.264 113.021C558.393 111.897 560.222 111.899 561.349 113.027Z" fill="white"/>
<path d="M544.362 14.979C543.61 13.8585 543.909 12.341 545.03 11.5894L556.898 3.62881C558.019 2.87727 559.537 3.17636 560.288 4.29685L562.635 7.79659C563.387 8.91709 563.088 10.4347 561.967 11.1862L550.099 19.1468C548.978 19.8984 547.461 19.5993 546.709 18.4788L544.362 14.979Z" fill="white"/>
<path d="M571.179 101.746C570.891 100.427 571.727 99.1256 573.045 98.8378L587.007 95.7895C588.325 95.5017 589.627 96.337 589.915 97.6552L590.814 101.772C591.102 103.09 590.266 104.392 588.948 104.68L574.986 107.728C573.668 108.016 572.366 107.181 572.078 105.863L571.179 101.746Z" fill="white"/>
<path d="M585.248 62.5706C584.241 63.4687 582.697 63.3806 581.799 62.3737L572.286 51.7088C571.388 50.702 571.476 49.1577 572.483 48.2596L575.627 45.4545C576.634 44.5564 578.178 44.6446 579.077 45.6514L588.59 56.3163C589.488 57.3232 589.399 58.8674 588.393 59.7655L585.248 62.5706Z" fill="white"/>
<path d="M518.83 99.779C520.159 99.5508 521.422 100.444 521.651 101.773L524.068 115.859C524.297 117.188 523.404 118.451 522.074 118.68L517.921 119.392C516.591 119.621 515.328 118.728 515.1 117.398L512.682 103.313C512.454 101.983 513.347 100.72 514.676 100.492L518.83 99.779Z" fill="white"/>
<path d="M654.519 22.9966L640.402 10.3382C640.106 10.073 639.639 10.1085 639.399 10.4304C636.54 14.2428 637.316 19.9573 641.304 23.5336C645.293 27.1099 651.056 27.2615 654.537 24.0038C654.829 23.7294 654.815 23.2619 654.519 22.9966Z" fill="white"/>
<path d="M727.61 109.398L741.728 122.056C742.024 122.322 742.491 122.286 742.731 121.964C745.59 118.152 744.814 112.437 740.826 108.861C736.837 105.285 731.073 105.133 727.593 108.391C727.3 108.665 727.315 109.133 727.61 109.398Z" fill="white"/>
<path d="M743.539 47.5561L728.857 35.557C728.549 35.3056 728.084 35.3625 727.859 35.695C725.178 39.6342 726.214 45.3072 730.362 48.6972C734.51 52.0873 740.275 51.975 743.602 48.5613C743.882 48.2738 743.847 47.8075 743.539 47.5561Z" fill="white"/>
<path d="M648.299 89.2987L661.653 75.8376C661.933 75.5555 661.921 75.0868 661.612 74.8312C657.948 71.7834 652.202 72.2701 648.429 76.0732C644.656 79.8763 644.214 85.6251 647.292 89.2653C647.551 89.5714 648.019 89.5808 648.299 89.2987Z" fill="white"/>
<path d="M645.458 58.6613C642.674 58.957 639.936 54.6694 639.343 49.0848C638.75 43.5002 640.526 38.7333 643.31 38.4377C646.094 38.142 648.831 42.4296 649.424 48.0142C650.018 53.5988 648.242 58.3657 645.458 58.6613Z" fill="white"/>
<path d="M738.286 68.2908C741.069 67.9951 743.807 72.2827 744.4 77.8673C744.993 83.4519 743.217 88.2188 740.433 88.5145C737.649 88.8101 734.912 84.5226 734.319 78.938C733.726 73.3534 735.502 68.5865 738.286 68.2908Z" fill="white"/>
<path d="M707.928 15.4529C709.738 16.7543 708.548 21.5059 705.27 26.066C701.993 30.6262 697.868 33.268 696.057 31.9666C694.247 30.6653 695.437 25.9136 698.715 21.3535C701.992 16.7934 706.117 14.1516 707.928 15.4529Z" fill="white"/>
<path d="M680.989 92.9478C678.773 92.7065 677.469 87.9849 678.077 82.4019C678.685 76.8189 680.974 72.4886 683.191 72.73C685.407 72.9713 686.711 77.6929 686.103 83.2759C685.495 88.8589 683.206 93.1892 680.989 92.9478Z" fill="white"/>
<path fill-rule="evenodd" clip-rule="evenodd" d="M682.165 45.3131C683.092 46.6099 682.792 48.4105 681.494 49.3348C678.572 51.4163 674.639 52.0343 670.914 50.824C667.188 49.6136 664.37 46.8015 663.229 43.4006C662.723 41.89 663.538 40.2568 665.05 39.7526C666.563 39.2484 668.2 40.0643 668.707 41.5749C669.245 43.1797 670.65 44.6758 672.695 45.3404C674.741 46.0052 676.757 45.6206 678.136 44.6388C679.433 43.7144 681.237 44.0163 682.165 45.3131Z" fill="white"/>
<path fill-rule="evenodd" clip-rule="evenodd" d="M703.288 80.7997C702.361 79.5029 702.661 77.7023 703.959 76.778C706.882 74.6965 710.815 74.0785 714.54 75.2888C718.265 76.4991 721.083 79.3113 722.224 82.7122C722.731 84.2228 721.915 85.856 720.403 86.3602C718.89 86.8644 717.253 86.0485 716.747 84.5379C716.208 82.9331 714.803 81.437 712.758 80.7724C710.712 80.1076 708.696 80.4922 707.317 81.474C706.02 82.3984 704.216 82.0964 703.288 80.7997Z" fill="white"/>
<path fill-rule="evenodd" clip-rule="evenodd" d="M732.136 12.6122C731.881 11.0384 732.95 9.5586 734.523 9.30697C738.066 8.74031 741.864 9.93371 744.664 12.6728C747.464 15.4119 748.739 19.1831 748.251 22.7369C748.034 24.3154 746.578 25.4165 744.999 25.1964C743.42 24.9762 742.316 23.5181 742.533 21.9396C742.763 20.2627 742.169 18.2983 740.632 16.7942C739.094 15.2896 737.117 14.7388 735.446 15.0061C733.872 15.2578 732.39 14.186 732.136 12.6122Z" fill="white"/>
<path fill-rule="evenodd" clip-rule="evenodd" d="M687.349 113.027C688.476 114.154 688.475 115.979 687.346 117.104C684.804 119.636 681.025 120.889 677.152 120.305C673.279 119.721 670.039 117.409 668.356 114.24C667.609 112.833 668.146 111.089 669.555 110.344C670.965 109.599 672.713 110.135 673.46 111.543C674.254 113.038 675.885 114.283 678.012 114.604C680.139 114.925 682.065 114.215 683.264 113.021C684.393 111.897 686.222 111.899 687.349 113.027Z" fill="white"/>
<path d="M670.362 14.979C669.61 13.8585 669.909 12.341 671.03 11.5894L682.898 3.62881C684.019 2.87727 685.537 3.17636 686.288 4.29685L688.635 7.79659C689.387 8.91709 689.088 10.4347 687.967 11.1862L676.099 19.1468C674.978 19.8984 673.461 19.5993 672.709 18.4788L670.362 14.979Z" fill="white"/>
<path d="M697.179 101.746C696.891 100.427 697.727 99.1256 699.045 98.8378L713.007 95.7895C714.325 95.5017 715.627 96.337 715.915 97.6552L716.814 101.772C717.102 103.09 716.266 104.392 714.948 104.68L700.986 107.728C699.668 108.016 698.366 107.181 698.078 105.863L697.179 101.746Z" fill="white"/>
<path d="M711.248 62.5706C710.241 63.4687 708.697 63.3806 707.799 62.3737L698.286 51.7088C697.388 50.702 697.476 49.1577 698.483 48.2596L701.627 45.4545C702.634 44.5564 704.178 44.6446 705.077 45.6514L714.59 56.3163C715.488 57.3232 715.399 58.8674 714.393 59.7655L711.248 62.5706Z" fill="white"/>
<path d="M644.83 99.779C646.159 99.5508 647.422 100.444 647.651 101.773L650.068 115.859C650.297 117.188 649.404 118.451 648.074 118.68L643.921 119.392C642.591 119.621 641.328 118.728 641.1 117.398L638.682 103.313C638.454 101.983 639.347 100.72 640.676 100.492L644.83 99.779Z" fill="white"/>
<path d="M780.519 22.9966L766.402 10.3382C766.106 10.073 765.639 10.1085 765.399 10.4304C762.54 14.2428 763.316 19.9573 767.304 23.5336C771.293 27.1099 777.056 27.2615 780.537 24.0038C780.829 23.7294 780.815 23.2619 780.519 22.9966Z" fill="white"/>
<path d="M853.61 109.398L867.728 122.056C868.024 122.322 868.491 122.286 868.731 121.964C871.59 118.152 870.814 112.437 866.826 108.861C862.837 105.285 857.073 105.133 853.593 108.391C853.3 108.665 853.315 109.133 853.61 109.398Z" fill="white"/>
<path d="M869.539 47.5561L854.857 35.557C854.549 35.3056 854.084 35.3625 853.859 35.695C851.178 39.6342 852.214 45.3072 856.362 48.6972C860.51 52.0873 866.275 51.975 869.602 48.5613C869.882 48.2738 869.847 47.8075 869.539 47.5561Z" fill="white"/>
<path d="M774.299 89.2987L787.653 75.8376C787.933 75.5555 787.921 75.0868 787.612 74.8312C783.948 71.7834 778.202 72.2701 774.429 76.0732C770.656 79.8763 770.214 85.6251 773.292 89.2653C773.551 89.5714 774.019 89.5808 774.299 89.2987Z" fill="white"/>
<path d="M771.458 58.6613C768.674 58.957 765.936 54.6694 765.343 49.0848C764.75 43.5002 766.526 38.7333 769.31 38.4377C772.094 38.142 774.831 42.4296 775.424 48.0142C776.018 53.5988 774.242 58.3657 771.458 58.6613Z" fill="white"/>
<path d="M864.286 68.2908C867.069 67.9951 869.807 72.2827 870.4 77.8673C870.993 83.4519 869.217 88.2188 866.433 88.5145C863.649 88.8101 860.912 84.5226 860.319 78.938C859.726 73.3534 861.502 68.5865 864.286 68.2908Z" fill="white"/>
<path d="M833.928 15.4529C835.738 16.7543 834.548 21.5059 831.27 26.066C827.993 30.6262 823.868 33.268 822.057 31.9666C820.247 30.6653 821.437 25.9136 824.715 21.3535C827.992 16.7934 832.117 14.1516 833.928 15.4529Z" fill="white"/>
<path d="M806.989 92.9478C804.773 92.7065 803.469 87.9849 804.077 82.4019C804.685 76.8189 806.974 72.4886 809.191 72.73C811.407 72.9713 812.711 77.6929 812.103 83.2759C811.495 88.8589 809.206 93.1892 806.989 92.9478Z" fill="white"/>
<path fill-rule="evenodd" clip-rule="evenodd" d="M808.165 45.3131C809.092 46.6099 808.792 48.4105 807.494 49.3348C804.572 51.4163 800.639 52.0343 796.914 50.824C793.188 49.6136 790.37 46.8015 789.229 43.4006C788.723 41.89 789.538 40.2568 791.05 39.7526C792.563 39.2484 794.2 40.0643 794.707 41.5749C795.245 43.1797 796.65 44.6758 798.695 45.3404C800.741 46.0052 802.757 45.6206 804.136 44.6388C805.433 43.7144 807.237 44.0163 808.165 45.3131Z" fill="white"/>
<path fill-rule="evenodd" clip-rule="evenodd" d="M829.288 80.7997C828.361 79.5029 828.661 77.7023 829.959 76.778C832.882 74.6965 836.815 74.0785 840.54 75.2888C844.265 76.4991 847.083 79.3113 848.224 82.7122C848.731 84.2228 847.915 85.856 846.403 86.3602C844.89 86.8644 843.253 86.0485 842.747 84.5379C842.208 82.9331 840.803 81.437 838.758 80.7724C836.712 80.1076 834.696 80.4922 833.317 81.474C832.02 82.3984 830.216 82.0964 829.288 80.7997Z" fill="white"/>
<path fill-rule="evenodd" clip-rule="evenodd" d="M858.136 12.6122C857.881 11.0384 858.95 9.5586 860.523 9.30697C864.066 8.74031 867.864 9.93371 870.664 12.6728C873.464 15.4119 874.739 19.1831 874.251 22.7369C874.034 24.3154 872.578 25.4165 870.999 25.1964C869.42 24.9762 868.316 23.5181 868.533 21.9396C868.763 20.2627 868.169 18.2983 866.632 16.7942C865.094 15.2896 863.117 14.7388 861.446 15.0061C859.872 15.2578 858.39 14.186 858.136 12.6122Z" fill="white"/>
<path fill-rule="evenodd" clip-rule="evenodd" d="M813.349 113.027C814.476 114.154 814.475 115.979 813.346 117.104C810.804 119.636 807.025 120.889 803.152 120.305C799.279 119.721 796.039 117.409 794.356 114.24C793.609 112.833 794.146 111.089 795.555 110.344C796.965 109.599 798.713 110.135 799.46 111.543C800.254 113.038 801.885 114.283 804.012 114.604C806.139 114.925 808.065 114.215 809.264 113.021C810.393 111.897 812.222 111.899 813.349 113.027Z" fill="white"/>
<path d="M796.362 14.979C795.61 13.8585 795.909 12.341 797.03 11.5894L808.898 3.62881C810.019 2.87727 811.537 3.17636 812.288 4.29685L814.635 7.79659C815.387 8.91709 815.088 10.4347 813.967 11.1862L802.099 19.1468C800.978 19.8984 799.461 19.5993 798.709 18.4788L796.362 14.979Z" fill="white"/>
<path d="M823.179 101.746C822.891 100.427 823.727 99.1256 825.045 98.8378L839.007 95.7895C840.325 95.5017 841.627 96.337 841.915 97.6552L842.814 101.772C843.102 103.09 842.266 104.392 840.948 104.68L826.986 107.728C825.668 108.016 824.366 107.181 824.078 105.863L823.179 101.746Z" fill="white"/>
<path d="M837.248 62.5706C836.241 63.4687 834.697 63.3806 833.799 62.3737L824.286 51.7088C823.388 50.702 823.476 49.1577 824.483 48.2596L827.627 45.4545C828.634 44.5564 830.178 44.6446 831.077 45.6514L840.59 56.3163C841.488 57.3232 841.399 58.8674 840.393 59.7655L837.248 62.5706Z" fill="white"/>
<path d="M770.83 99.779C772.159 99.5508 773.422 100.444 773.651 101.773L776.068 115.859C776.297 117.188 775.404 118.451 774.074 118.68L769.921 119.392C768.591 119.621 767.328 118.728 767.1 117.398L764.682 103.313C764.454 101.983 765.347 100.72 766.676 100.492L770.83 99.779Z" fill="white"/>
<path d="M906.519 22.9966L892.402 10.3382C892.106 10.073 891.639 10.1085 891.399 10.4304C888.54 14.2428 889.316 19.9573 893.304 23.5336C897.293 27.1099 903.056 27.2615 906.537 24.0038C906.829 23.7294 906.815 23.2619 906.519 22.9966Z" fill="white"/>
<path d="M979.61 109.398L993.728 122.056C994.024 122.322 994.491 122.286 994.731 121.964C997.59 118.152 996.814 112.437 992.826 108.861C988.837 105.285 983.073 105.133 979.593 108.391C979.3 108.665 979.315 109.133 979.61 109.398Z" fill="white"/>
<path d="M995.539 47.5561L980.857 35.557C980.549 35.3056 980.084 35.3625 979.859 35.695C977.178 39.6342 978.214 45.3072 982.362 48.6972C986.51 52.0873 992.275 51.975 995.602 48.5613C995.882 48.2738 995.847 47.8075 995.539 47.5561Z" fill="white"/>
<path d="M900.299 89.2987L913.653 75.8376C913.933 75.5555 913.921 75.0868 913.612 74.8312C909.948 71.7834 904.202 72.2701 900.429 76.0732C896.656 79.8763 896.214 85.6251 899.292 89.2653C899.551 89.5714 900.019 89.5808 900.299 89.2987Z" fill="white"/>
<path d="M897.458 58.6613C894.674 58.957 891.936 54.6694 891.343 49.0848C890.75 43.5002 892.526 38.7333 895.31 38.4377C898.094 38.142 900.831 42.4296 901.424 48.0142C902.018 53.5988 900.242 58.3657 897.458 58.6613Z" fill="white"/>
<path d="M990.286 68.2908C993.069 67.9951 995.807 72.2827 996.4 77.8673C996.993 83.4519 995.217 88.2188 992.433 88.5145C989.649 88.8101 986.912 84.5226 986.319 78.938C985.726 73.3534 987.502 68.5865 990.286 68.2908Z" fill="white"/>
<path d="M959.928 15.4529C961.738 16.7543 960.548 21.5059 957.27 26.066C953.993 30.6262 949.868 33.268 948.057 31.9666C946.247 30.6653 947.437 25.9136 950.715 21.3535C953.992 16.7934 958.117 14.1516 959.928 15.4529Z" fill="white"/>
<path d="M932.989 92.9478C930.773 92.7065 929.469 87.9849 930.077 82.4019C930.685 76.8189 932.974 72.4886 935.191 72.73C937.407 72.9713 938.711 77.6929 938.103 83.2759C937.495 88.8589 935.206 93.1892 932.989 92.9478Z" fill="white"/>
<path fill-rule="evenodd" clip-rule="evenodd" d="M934.165 45.3131C935.092 46.6099 934.792 48.4105 933.494 49.3348C930.572 51.4163 926.639 52.0343 922.914 50.824C919.188 49.6136 916.37 46.8015 915.229 43.4006C914.723 41.89 915.538 40.2568 917.05 39.7526C918.563 39.2484 920.2 40.0643 920.707 41.5749C921.245 43.1797 922.65 44.6758 924.695 45.3404C926.741 46.0052 928.757 45.6206 930.136 44.6388C931.433 43.7144 933.237 44.0163 934.165 45.3131Z" fill="white"/>
<path fill-rule="evenodd" clip-rule="evenodd" d="M955.288 80.7997C954.361 79.5029 954.661 77.7023 955.959 76.778C958.882 74.6965 962.815 74.0785 966.54 75.2888C970.265 76.4991 973.083 79.3113 974.224 82.7122C974.731 84.2228 973.915 85.856 972.403 86.3602C970.89 86.8644 969.253 86.0485 968.747 84.5379C968.208 82.9331 966.803 81.437 964.758 80.7724C962.712 80.1076 960.696 80.4922 959.317 81.474C958.02 82.3984 956.216 82.0964 955.288 80.7997Z" fill="white"/>
<path fill-rule="evenodd" clip-rule="evenodd" d="M984.136 12.6122C983.881 11.0384 984.95 9.5586 986.523 9.30697C990.066 8.74031 993.864 9.93371 996.664 12.6728C999.464 15.4119 1000.74 19.1831 1000.25 22.7369C1000.03 24.3154 998.578 25.4165 996.999 25.1964C995.42 24.9762 994.316 23.5181 994.533 21.9396C994.763 20.2627 994.169 18.2983 992.632 16.7942C991.094 15.2896 989.117 14.7388 987.446 15.0061C985.872 15.2578 984.39 14.186 984.136 12.6122Z" fill="white"/>
<path fill-rule="evenodd" clip-rule="evenodd" d="M939.349 113.027C940.476 114.154 940.475 115.979 939.346 117.104C936.804 119.636 933.025 120.889 929.152 120.305C925.279 119.721 922.039 117.409 920.356 114.24C919.609 112.833 920.146 111.089 921.555 110.344C922.965 109.599 924.713 110.135 925.46 111.543C926.254 113.038 927.885 114.283 930.012 114.604C932.139 114.925 934.065 114.215 935.264 113.021C936.393 111.897 938.222 111.899 939.349 113.027Z" fill="white"/>
<path d="M922.362 14.979C921.61 13.8585 921.909 12.341 923.03 11.5894L934.898 3.62881C936.019 2.87727 937.537 3.17636 938.288 4.29685L940.635 7.79659C941.387 8.91709 941.088 10.4347 939.967 11.1862L928.099 19.1468C926.978 19.8984 925.461 19.5993 924.709 18.4788L922.362 14.979Z" fill="white"/>
<path d="M949.179 101.746C948.891 100.427 949.727 99.1256 951.045 98.8378L965.007 95.7895C966.325 95.5017 967.627 96.337 967.915 97.6552L968.814 101.772C969.102 103.09 968.266 104.392 966.948 104.68L952.986 107.728C951.668 108.016 950.366 107.181 950.078 105.863L949.179 101.746Z" fill="white"/>
<path d="M963.248 62.5706C962.241 63.4687 960.697 63.3806 959.799 62.3737L950.286 51.7088C949.388 50.702 949.476 49.1577 950.483 48.2596L953.627 45.4545C954.634 44.5564 956.178 44.6446 957.077 45.6514L966.59 56.3163C967.488 57.3232 967.399 58.8674 966.393 59.7655L963.248 62.5706Z" fill="white"/>
<path d="M896.83 99.779C898.159 99.5508 899.422 100.444 899.651 101.773L902.068 115.859C902.297 117.188 901.404 118.451 900.074 118.68L895.921 119.392C894.591 119.621 893.328 118.728 893.1 117.398L890.682 103.313C890.454 101.983 891.347 100.72 892.676 100.492L896.83 99.779Z" fill="white"/>
<path d="M1032.52 22.9966L1018.4 10.3382C1018.11 10.073 1017.64 10.1085 1017.4 10.4304C1014.54 14.2428 1015.32 19.9573 1019.3 23.5336C1023.29 27.1099 1029.06 27.2615 1032.54 24.0038C1032.83 23.7294 1032.82 23.2619 1032.52 22.9966Z" fill="white"/>
<path d="M1105.61 109.398L1119.73 122.056C1120.02 122.322 1120.49 122.286 1120.73 121.964C1123.59 118.152 1122.81 112.437 1118.83 108.861C1114.84 105.285 1109.07 105.133 1105.59 108.391C1105.3 108.665 1105.31 109.133 1105.61 109.398Z" fill="white"/>
<path d="M1121.54 47.5561L1106.86 35.557C1106.55 35.3056 1106.08 35.3625 1105.86 35.695C1103.18 39.6342 1104.21 45.3072 1108.36 48.6972C1112.51 52.0873 1118.27 51.975 1121.6 48.5613C1121.88 48.2738 1121.85 47.8075 1121.54 47.5561Z" fill="white"/>
<path d="M1026.3 89.2987L1039.65 75.8376C1039.93 75.5555 1039.92 75.0868 1039.61 74.8312C1035.95 71.7834 1030.2 72.2701 1026.43 76.0732C1022.66 79.8763 1022.21 85.6251 1025.29 89.2653C1025.55 89.5714 1026.02 89.5808 1026.3 89.2987Z" fill="white"/>
<path d="M1023.46 58.6613C1020.67 58.957 1017.94 54.6694 1017.34 49.0848C1016.75 43.5002 1018.53 38.7333 1021.31 38.4377C1024.09 38.142 1026.83 42.4296 1027.42 48.0142C1028.02 53.5988 1026.24 58.3657 1023.46 58.6613Z" fill="white"/>
<path d="M1116.29 68.2908C1119.07 67.9951 1121.81 72.2827 1122.4 77.8673C1122.99 83.4519 1121.22 88.2188 1118.43 88.5145C1115.65 88.8101 1112.91 84.5226 1112.32 78.938C1111.73 73.3534 1113.5 68.5865 1116.29 68.2908Z" fill="white"/>
<path d="M1085.93 15.4529C1087.74 16.7543 1086.55 21.5059 1083.27 26.066C1079.99 30.6262 1075.87 33.268 1074.06 31.9666C1072.25 30.6653 1073.44 25.9136 1076.71 21.3535C1079.99 16.7934 1084.12 14.1516 1085.93 15.4529Z" fill="white"/>
<path d="M1058.99 92.9478C1056.77 92.7065 1055.47 87.9849 1056.08 82.4019C1056.68 76.8189 1058.97 72.4886 1061.19 72.73C1063.41 72.9713 1064.71 77.6929 1064.1 83.2759C1063.5 88.8589 1061.21 93.1892 1058.99 92.9478Z" fill="white"/>
<path fill-rule="evenodd" clip-rule="evenodd" d="M1060.16 45.3131C1061.09 46.6099 1060.79 48.4105 1059.49 49.3348C1056.57 51.4163 1052.64 52.0343 1048.91 50.824C1045.19 49.6136 1042.37 46.8015 1041.23 43.4006C1040.72 41.89 1041.54 40.2568 1043.05 39.7526C1044.56 39.2484 1046.2 40.0643 1046.71 41.5749C1047.24 43.1797 1048.65 44.6758 1050.7 45.3404C1052.74 46.0052 1054.76 45.6206 1056.14 44.6388C1057.43 43.7144 1059.24 44.0163 1060.16 45.3131Z" fill="white"/>
<path fill-rule="evenodd" clip-rule="evenodd" d="M1081.29 80.7997C1080.36 79.5029 1080.66 77.7023 1081.96 76.778C1084.88 74.6965 1088.81 74.0785 1092.54 75.2888C1096.26 76.4991 1099.08 79.3113 1100.22 82.7122C1100.73 84.2228 1099.92 85.856 1098.4 86.3602C1096.89 86.8644 1095.25 86.0485 1094.75 84.5379C1094.21 82.9331 1092.8 81.437 1090.76 80.7724C1088.71 80.1076 1086.7 80.4922 1085.32 81.474C1084.02 82.3984 1082.22 82.0964 1081.29 80.7997Z" fill="white"/>
<path fill-rule="evenodd" clip-rule="evenodd" d="M1110.14 12.6122C1109.88 11.0384 1110.95 9.5586 1112.52 9.30697C1116.07 8.74031 1119.86 9.93371 1122.66 12.6728C1125.46 15.4119 1126.74 19.1831 1126.25 22.7369C1126.03 24.3154 1124.58 25.4165 1123 25.1964C1121.42 24.9762 1120.32 23.5181 1120.53 21.9396C1120.76 20.2627 1120.17 18.2983 1118.63 16.7942C1117.09 15.2896 1115.12 14.7388 1113.45 15.0061C1111.87 15.2578 1110.39 14.186 1110.14 12.6122Z" fill="white"/>
<path fill-rule="evenodd" clip-rule="evenodd" d="M1065.35 113.027C1066.48 114.154 1066.47 115.979 1065.35 117.104C1062.8 119.636 1059.02 120.889 1055.15 120.305C1051.28 119.721 1048.04 117.409 1046.36 114.24C1045.61 112.833 1046.15 111.089 1047.56 110.344C1048.96 109.599 1050.71 110.135 1051.46 111.543C1052.25 113.038 1053.88 114.283 1056.01 114.604C1058.14 114.925 1060.06 114.215 1061.26 113.021C1062.39 111.897 1064.22 111.899 1065.35 113.027Z" fill="white"/>
<path d="M1048.36 14.979C1047.61 13.8585 1047.91 12.341 1049.03 11.5894L1060.9 3.62881C1062.02 2.87727 1063.54 3.17636 1064.29 4.29685L1066.64 7.79659C1067.39 8.91709 1067.09 10.4347 1065.97 11.1862L1054.1 19.1468C1052.98 19.8984 1051.46 19.5993 1050.71 18.4788L1048.36 14.979Z" fill="white"/>
<path d="M1075.18 101.746C1074.89 100.427 1075.73 99.1256 1077.04 98.8378L1091.01 95.7895C1092.33 95.5017 1093.63 96.337 1093.91 97.6552L1094.81 101.772C1095.1 103.09 1094.27 104.392 1092.95 104.68L1078.99 107.728C1077.67 108.016 1076.37 107.181 1076.08 105.863L1075.18 101.746Z" fill="white"/>
<path d="M1089.25 62.5706C1088.24 63.4687 1086.7 63.3806 1085.8 62.3737L1076.29 51.7088C1075.39 50.702 1075.48 49.1577 1076.48 48.2596L1079.63 45.4545C1080.63 44.5564 1082.18 44.6446 1083.08 45.6514L1092.59 56.3163C1093.49 57.3232 1093.4 58.8674 1092.39 59.7655L1089.25 62.5706Z" fill="white"/>
<path d="M1022.83 99.779C1024.16 99.5508 1025.42 100.444 1025.65 101.773L1028.07 115.859C1028.3 117.188 1027.4 118.451 1026.07 118.68L1021.92 119.392C1020.59 119.621 1019.33 118.728 1019.1 117.398L1016.68 103.313C1016.45 101.983 1017.35 100.72 1018.68 100.492L1022.83 99.779Z" fill="white"/>
<path d="M1158.52 22.9966L1144.4 10.3382C1144.11 10.073 1143.64 10.1085 1143.4 10.4304C1140.54 14.2428 1141.32 19.9573 1145.3 23.5336C1149.29 27.1099 1155.06 27.2615 1158.54 24.0038C1158.83 23.7294 1158.82 23.2619 1158.52 22.9966Z" fill="white"/>
<path d="M1231.61 109.398L1245.73 122.056C1246.02 122.322 1246.49 122.286 1246.73 121.964C1249.59 118.152 1248.81 112.437 1244.83 108.861C1240.84 105.285 1235.07 105.133 1231.59 108.391C1231.3 108.665 1231.31 109.133 1231.61 109.398Z" fill="white"/>
<path d="M1247.54 47.5561L1232.86 35.557C1232.55 35.3056 1232.08 35.3625 1231.86 35.695C1229.18 39.6342 1230.21 45.3072 1234.36 48.6972C1238.51 52.0873 1244.27 51.975 1247.6 48.5613C1247.88 48.2738 1247.85 47.8075 1247.54 47.5561Z" fill="white"/>
<path d="M1152.3 89.2987L1165.65 75.8376C1165.93 75.5555 1165.92 75.0868 1165.61 74.8312C1161.95 71.7834 1156.2 72.2701 1152.43 76.0732C1148.66 79.8763 1148.21 85.6251 1151.29 89.2653C1151.55 89.5714 1152.02 89.5808 1152.3 89.2987Z" fill="white"/>
<path d="M1149.46 58.6613C1146.67 58.957 1143.94 54.6694 1143.34 49.0848C1142.75 43.5002 1144.53 38.7333 1147.31 38.4377C1150.09 38.142 1152.83 42.4296 1153.42 48.0142C1154.02 53.5988 1152.24 58.3657 1149.46 58.6613Z" fill="white"/>
<path d="M1242.29 68.2908C1245.07 67.9951 1247.81 72.2827 1248.4 77.8673C1248.99 83.4519 1247.22 88.2188 1244.43 88.5145C1241.65 88.8101 1238.91 84.5226 1238.32 78.938C1237.73 73.3534 1239.5 68.5865 1242.29 68.2908Z" fill="white"/>
<path d="M1211.93 15.4529C1213.74 16.7543 1212.55 21.5059 1209.27 26.066C1205.99 30.6262 1201.87 33.268 1200.06 31.9666C1198.25 30.6653 1199.44 25.9136 1202.71 21.3535C1205.99 16.7934 1210.12 14.1516 1211.93 15.4529Z" fill="white"/>
<path d="M1184.99 92.9478C1182.77 92.7065 1181.47 87.9849 1182.08 82.4019C1182.68 76.8189 1184.97 72.4886 1187.19 72.73C1189.41 72.9713 1190.71 77.6929 1190.1 83.2759C1189.5 88.8589 1187.21 93.1892 1184.99 92.9478Z" fill="white"/>
<path fill-rule="evenodd" clip-rule="evenodd" d="M1186.16 45.3131C1187.09 46.6099 1186.79 48.4105 1185.49 49.3348C1182.57 51.4163 1178.64 52.0343 1174.91 50.824C1171.19 49.6136 1168.37 46.8015 1167.23 43.4006C1166.72 41.89 1167.54 40.2568 1169.05 39.7526C1170.56 39.2484 1172.2 40.0643 1172.71 41.5749C1173.24 43.1797 1174.65 44.6758 1176.7 45.3404C1178.74 46.0052 1180.76 45.6206 1182.14 44.6388C1183.43 43.7144 1185.24 44.0163 1186.16 45.3131Z" fill="white"/>
<path fill-rule="evenodd" clip-rule="evenodd" d="M1207.29 80.7997C1206.36 79.5029 1206.66 77.7023 1207.96 76.778C1210.88 74.6965 1214.81 74.0785 1218.54 75.2888C1222.26 76.4991 1225.08 79.3113 1226.22 82.7122C1226.73 84.2228 1225.92 85.856 1224.4 86.3602C1222.89 86.8644 1221.25 86.0485 1220.75 84.5379C1220.21 82.9331 1218.8 81.437 1216.76 80.7724C1214.71 80.1076 1212.7 80.4922 1211.32 81.474C1210.02 82.3984 1208.22 82.0964 1207.29 80.7997Z" fill="white"/>
<path fill-rule="evenodd" clip-rule="evenodd" d="M1236.14 12.6122C1235.88 11.0384 1236.95 9.5586 1238.52 9.30697C1242.07 8.74031 1245.86 9.93371 1248.66 12.6728C1251.46 15.4119 1252.74 19.1831 1252.25 22.7369C1252.03 24.3154 1250.58 25.4165 1249 25.1964C1247.42 24.9762 1246.32 23.5181 1246.53 21.9396C1246.76 20.2627 1246.17 18.2983 1244.63 16.7942C1243.09 15.2896 1241.12 14.7388 1239.45 15.0061C1237.87 15.2578 1236.39 14.186 1236.14 12.6122Z" fill="white"/>
<path fill-rule="evenodd" clip-rule="evenodd" d="M1191.35 113.027C1192.48 114.154 1192.47 115.979 1191.35 117.104C1188.8 119.636 1185.02 120.889 1181.15 120.305C1177.28 119.721 1174.04 117.409 1172.36 114.24C1171.61 112.833 1172.15 111.089 1173.56 110.344C1174.96 109.599 1176.71 110.135 1177.46 111.543C1178.25 113.038 1179.88 114.283 1182.01 114.604C1184.14 114.925 1186.06 114.215 1187.26 113.021C1188.39 111.897 1190.22 111.899 1191.35 113.027Z" fill="white"/>
<path d="M1174.36 14.979C1173.61 13.8585 1173.91 12.341 1175.03 11.5894L1186.9 3.62881C1188.02 2.87727 1189.54 3.17636 1190.29 4.29685L1192.64 7.79659C1193.39 8.91709 1193.09 10.4347 1191.97 11.1862L1180.1 19.1468C1178.98 19.8984 1177.46 19.5993 1176.71 18.4788L1174.36 14.979Z" fill="white"/>
<path d="M1201.18 101.746C1200.89 100.427 1201.73 99.1256 1203.04 98.8378L1217.01 95.7895C1218.33 95.5017 1219.63 96.337 1219.91 97.6552L1220.81 101.772C1221.1 103.09 1220.27 104.392 1218.95 104.68L1204.99 107.728C1203.67 108.016 1202.37 107.181 1202.08 105.863L1201.18 101.746Z" fill="white"/>
<path d="M1215.25 62.5706C1214.24 63.4687 1212.7 63.3806 1211.8 62.3737L1202.29 51.7088C1201.39 50.702 1201.48 49.1577 1202.48 48.2596L1205.63 45.4545C1206.63 44.5564 1208.18 44.6446 1209.08 45.6514L1218.59 56.3163C1219.49 57.3232 1219.4 58.8674 1218.39 59.7655L1215.25 62.5706Z" fill="white"/>
<path d="M1148.83 99.779C1150.16 99.5508 1151.42 100.444 1151.65 101.773L1154.07 115.859C1154.3 117.188 1153.4 118.451 1152.07 118.68L1147.92 119.392C1146.59 119.621 1145.33 118.728 1145.1 117.398L1142.68 103.313C1142.45 101.983 1143.35 100.72 1144.68 100.492L1148.83 99.779Z" fill="white"/>
<path d="M1284.52 22.9966L1270.4 10.3382C1270.11 10.073 1269.64 10.1085 1269.4 10.4304C1266.54 14.2428 1267.32 19.9573 1271.3 23.5336C1275.29 27.1099 1281.06 27.2615 1284.54 24.0038C1284.83 23.7294 1284.82 23.2619 1284.52 22.9966Z" fill="white"/>
<path d="M1357.61 109.398L1371.73 122.056C1372.02 122.322 1372.49 122.286 1372.73 121.964C1375.59 118.152 1374.81 112.437 1370.83 108.861C1366.84 105.285 1361.07 105.133 1357.59 108.391C1357.3 108.665 1357.31 109.133 1357.61 109.398Z" fill="white"/>
<path d="M1373.54 47.5561L1358.86 35.557C1358.55 35.3056 1358.08 35.3625 1357.86 35.695C1355.18 39.6342 1356.21 45.3072 1360.36 48.6972C1364.51 52.0873 1370.28 51.975 1373.6 48.5613C1373.88 48.2738 1373.85 47.8075 1373.54 47.5561Z" fill="white"/>
<path d="M1278.3 89.2987L1291.65 75.8376C1291.93 75.5555 1291.92 75.0868 1291.61 74.8312C1287.95 71.7834 1282.2 72.2701 1278.43 76.0732C1274.66 79.8763 1274.21 85.6251 1277.29 89.2653C1277.55 89.5714 1278.02 89.5808 1278.3 89.2987Z" fill="white"/>
<path d="M1275.46 58.6613C1272.67 58.957 1269.94 54.6694 1269.34 49.0848C1268.75 43.5002 1270.53 38.7333 1273.31 38.4377C1276.09 38.142 1278.83 42.4296 1279.42 48.0142C1280.02 53.5988 1278.24 58.3657 1275.46 58.6613Z" fill="white"/>
<path d="M1368.29 68.2908C1371.07 67.9951 1373.81 72.2827 1374.4 77.8673C1374.99 83.4519 1373.22 88.2188 1370.43 88.5145C1367.65 88.8101 1364.91 84.5226 1364.32 78.938C1363.73 73.3534 1365.5 68.5865 1368.29 68.2908Z" fill="white"/>
<path d="M1337.93 15.4529C1339.74 16.7543 1338.55 21.5059 1335.27 26.066C1331.99 30.6262 1327.87 33.268 1326.06 31.9666C1324.25 30.6653 1325.44 25.9136 1328.71 21.3535C1331.99 16.7934 1336.12 14.1516 1337.93 15.4529Z" fill="white"/>
<path d="M1310.99 92.9478C1308.77 92.7065 1307.47 87.9849 1308.08 82.4019C1308.68 76.8189 1310.97 72.4886 1313.19 72.73C1315.41 72.9713 1316.71 77.6929 1316.1 83.2759C1315.5 88.8589 1313.21 93.1892 1310.99 92.9478Z" fill="white"/>
<path fill-rule="evenodd" clip-rule="evenodd" d="M1312.16 45.3131C1313.09 46.6099 1312.79 48.4105 1311.49 49.3348C1308.57 51.4163 1304.64 52.0343 1300.91 50.824C1297.19 49.6136 1294.37 46.8015 1293.23 43.4006C1292.72 41.89 1293.54 40.2568 1295.05 39.7526C1296.56 39.2484 1298.2 40.0643 1298.71 41.5749C1299.24 43.1797 1300.65 44.6758 1302.7 45.3404C1304.74 46.0052 1306.76 45.6206 1308.14 44.6388C1309.43 43.7144 1311.24 44.0163 1312.16 45.3131Z" fill="white"/>
<path fill-rule="evenodd" clip-rule="evenodd" d="M1333.29 80.7997C1332.36 79.5029 1332.66 77.7023 1333.96 76.778C1336.88 74.6965 1340.81 74.0785 1344.54 75.2888C1348.26 76.4991 1351.08 79.3113 1352.22 82.7122C1352.73 84.2228 1351.92 85.856 1350.4 86.3602C1348.89 86.8644 1347.25 86.0485 1346.75 84.5379C1346.21 82.9331 1344.8 81.437 1342.76 80.7724C1340.71 80.1076 1338.7 80.4922 1337.32 81.474C1336.02 82.3984 1334.22 82.0964 1333.29 80.7997Z" fill="white"/>
<path fill-rule="evenodd" clip-rule="evenodd" d="M1362.14 12.6122C1361.88 11.0384 1362.95 9.5586 1364.52 9.30697C1368.07 8.74031 1371.86 9.93371 1374.66 12.6728C1377.46 15.4119 1378.74 19.1831 1378.25 22.7369C1378.03 24.3154 1376.58 25.4165 1375 25.1964C1373.42 24.9762 1372.32 23.5181 1372.53 21.9396C1372.76 20.2627 1372.17 18.2983 1370.63 16.7942C1369.09 15.2896 1367.12 14.7388 1365.45 15.0061C1363.87 15.2578 1362.39 14.186 1362.14 12.6122Z" fill="white"/>
<path fill-rule="evenodd" clip-rule="evenodd" d="M1317.35 113.027C1318.48 114.154 1318.47 115.979 1317.35 117.104C1314.8 119.636 1311.02 120.889 1307.15 120.305C1303.28 119.721 1300.04 117.409 1298.36 114.24C1297.61 112.833 1298.15 111.089 1299.56 110.344C1300.96 109.599 1302.71 110.135 1303.46 111.543C1304.25 113.038 1305.88 114.283 1308.01 114.604C1310.14 114.925 1312.06 114.215 1313.26 113.021C1314.39 111.897 1316.22 111.899 1317.35 113.027Z" fill="white"/>
<path d="M1300.36 14.979C1299.61 13.8585 1299.91 12.341 1301.03 11.5894L1312.9 3.62881C1314.02 2.87727 1315.54 3.17636 1316.29 4.29685L1318.64 7.79659C1319.39 8.91709 1319.09 10.4347 1317.97 11.1862L1306.1 19.1468C1304.98 19.8984 1303.46 19.5993 1302.71 18.4788L1300.36 14.979Z" fill="white"/>
<path d="M1327.18 101.746C1326.89 100.427 1327.73 99.1256 1329.04 98.8378L1343.01 95.7895C1344.33 95.5017 1345.63 96.337 1345.91 97.6552L1346.81 101.772C1347.1 103.09 1346.27 104.392 1344.95 104.68L1330.99 107.728C1329.67 108.016 1328.37 107.181 1328.08 105.863L1327.18 101.746Z" fill="white"/>
<path d="M1341.25 62.5706C1340.24 63.4687 1338.7 63.3806 1337.8 62.3737L1328.29 51.7088C1327.39 50.702 1327.48 49.1577 1328.48 48.2596L1331.63 45.4545C1332.63 44.5564 1334.18 44.6446 1335.08 45.6514L1344.59 56.3163C1345.49 57.3232 1345.4 58.8674 1344.39 59.7655L1341.25 62.5706Z" fill="white"/>
<path d="M1274.83 99.779C1276.16 99.5508 1277.42 100.444 1277.65 101.773L1280.07 115.859C1280.3 117.188 1279.4 118.451 1278.07 118.68L1273.92 119.392C1272.59 119.621 1271.33 118.728 1271.1 117.398L1268.68 103.313C1268.45 101.983 1269.35 100.72 1270.68 100.492L1274.83 99.779Z" fill="white"/>
<path d="M1410.52 22.9966L1396.4 10.3382C1396.11 10.073 1395.64 10.1085 1395.4 10.4304C1392.54 14.2428 1393.32 19.9573 1397.3 23.5336C1401.29 27.1099 1407.06 27.2615 1410.54 24.0038C1410.83 23.7294 1410.82 23.2619 1410.52 22.9966Z" fill="white"/>
<path d="M1404.3 89.2987L1417.65 75.8376C1417.93 75.5555 1417.92 75.0868 1417.61 74.8312C1413.95 71.7834 1408.2 72.2701 1404.43 76.0732C1400.66 79.8763 1400.21 85.6251 1403.29 89.2653C1403.55 89.5714 1404.02 89.5808 1404.3 89.2987Z" fill="white"/>
<path d="M1401.46 58.6613C1398.67 58.957 1395.94 54.6694 1395.34 49.0848C1394.75 43.5002 1396.53 38.7333 1399.31 38.4377C1402.09 38.142 1404.83 42.4296 1405.42 48.0142C1406.02 53.5988 1404.24 58.3657 1401.46 58.6613Z" fill="white"/>
<path d="M1436.99 92.9478C1434.77 92.7065 1433.47 87.9849 1434.08 82.4019C1434.68 76.8189 1436.97 72.4886 1439.19 72.73C1441.41 72.9713 1442.71 77.6929 1442.1 83.2759C1441.49 88.8589 1439.21 93.1892 1436.99 92.9478Z" fill="white"/>
<path fill-rule="evenodd" clip-rule="evenodd" d="M1438.16 45.3131C1439.09 46.6099 1438.79 48.4105 1437.49 49.3348C1434.57 51.4163 1430.64 52.0343 1426.91 50.824C1423.19 49.6136 1420.37 46.8015 1419.23 43.4006C1418.72 41.89 1419.54 40.2568 1421.05 39.7526C1422.56 39.2484 1424.2 40.0643 1424.71 41.5749C1425.24 43.1797 1426.65 44.6758 1428.7 45.3404C1430.74 46.0052 1432.76 45.6206 1434.14 44.6388C1435.43 43.7144 1437.24 44.0163 1438.16 45.3131Z" fill="white"/>
<path fill-rule="evenodd" clip-rule="evenodd" d="M1443.35 113.027C1444.48 114.154 1444.47 115.979 1443.35 117.104C1440.8 119.636 1437.02 120.889 1433.15 120.305C1429.28 119.721 1426.04 117.409 1424.36 114.24C1423.61 112.833 1424.15 111.089 1425.56 110.344C1426.96 109.599 1428.71 110.135 1429.46 111.543C1430.25 113.038 1431.88 114.283 1434.01 114.604C1436.14 114.925 1438.06 114.215 1439.26 113.021C1440.39 111.897 1442.22 111.899 1443.35 113.027Z" fill="white"/>
<path d="M1426.36 14.979C1425.61 13.8585 1425.91 12.341 1427.03 11.5894L1438.9 3.62881C1440.02 2.87727 1441.54 3.17636 1442.29 4.29685L1444.64 7.79659C1445.39 8.91709 1445.09 10.4347 1443.97 11.1862L1432.1 19.1468C1430.98 19.8984 1429.46 19.5993 1428.71 18.4788L1426.36 14.979Z" fill="white"/>
<path d="M1400.83 99.779C1402.16 99.5508 1403.42 100.444 1403.65 101.773L1406.07 115.859C1406.3 117.188 1405.4 118.451 1404.07 118.68L1399.92 119.392C1398.59 119.621 1397.33 118.728 1397.1 117.398L1394.68 103.313C1394.45 101.983 1395.35 100.72 1396.68 100.492L1400.83 99.779Z" fill="white"/>
</g>
</svg>
