<svg width="64" height="44" viewBox="0 0 64 44" fill="none" xmlns="http://www.w3.org/2000/svg">
<path d="M44.992 14.2617H17.4751C16.8981 14.2617 16.429 14.7325 16.4793 15.2855C17.0824 21.8704 23.4576 27.052 31.2326 27.052C39.0076 27.052 45.3829 21.8704 45.986 15.2855C46.0381 14.7325 45.569 14.2617 44.992 14.2617Z" fill="#FF6633"/>
<path d="M26.2662 4.40841C25.9591 4.40841 25.6539 4.27596 25.4547 4.0218C24.4495 2.75101 22.5398 1.95989 20.4718 1.95989C18.4038 1.95989 16.494 2.74922 15.4888 4.0218C15.1482 4.45316 14.5079 4.53549 14.0611 4.20795C13.6126 3.88041 13.5269 3.2647 13.8676 2.83513C15.271 1.05959 17.7392 0 20.4718 0C23.2043 0 25.6725 1.05959 27.0778 2.83513C27.4184 3.26648 27.331 3.88041 26.8842 4.20795C26.6981 4.34398 26.4822 4.40841 26.2662 4.40841Z" fill="#414141"/>
<path d="M47.7877 4.40841C47.4806 4.40841 47.1753 4.27596 46.9762 4.0218C45.971 2.75101 44.0612 1.95989 41.9932 1.95989C39.9252 1.95989 38.0155 2.74922 37.0103 4.0218C36.6697 4.45316 36.0294 4.53549 35.5826 4.20795C35.134 3.88041 35.0484 3.2647 35.389 2.83513C36.7925 1.05959 39.2607 0 41.9932 0C44.7258 0 47.194 1.05959 48.5993 2.83513C48.9399 3.26648 48.8524 3.88041 48.4057 4.20795C48.2196 4.34398 48.0037 4.40841 47.7877 4.40841Z" fill="#414141"/>
<path d="M2.85197 30.0031L2.45178 31.0216C2.41641 31.1057 2.28797 31.1397 2.16885 31.0985C1.89708 31.0198 1.61601 30.8784 1.32192 30.6707C1.02968 30.4667 0.798866 30.2501 0.627619 30.0228C0.368886 29.6774 0.188332 29.3015 0.087817 28.9006C-0.00897503 28.4961 -0.0238661 28.1059 0.0338368 27.7229C0.0952625 27.3434 0.236728 26.9765 0.456371 26.6257C0.677876 26.2749 0.962668 25.976 1.32005 25.729C1.67558 25.482 2.06089 25.3137 2.47597 25.2224C2.89106 25.1311 3.29871 25.1168 3.69332 25.1813C4.09352 25.2457 4.47324 25.3835 4.83807 25.6001C5.20663 25.8149 5.5212 26.0977 5.77993 26.4431C5.9456 26.6651 6.0852 26.9461 6.19316 27.2808C6.30484 27.6155 6.36068 27.9287 6.35882 28.2222C6.36068 28.3404 6.2732 28.4299 6.17641 28.4334L5.04841 28.4639C4.94045 28.4639 4.8511 28.3672 4.8511 28.2294C4.85482 28.0629 4.83249 27.8947 4.77851 27.7193C4.72453 27.5439 4.65566 27.3989 4.57003 27.2843C4.29269 26.9156 3.92413 26.6919 3.46251 26.6203C3.00461 26.5469 2.58766 26.6436 2.20421 26.9085C1.82449 27.1716 1.5974 27.5224 1.52667 27.9645C1.45966 28.403 1.5639 28.8111 1.84124 29.1798C1.92687 29.2944 2.04413 29.4017 2.19677 29.502C2.35126 29.604 2.50203 29.681 2.65653 29.7293C2.8073 29.7758 2.89106 29.8957 2.85197 30.0031Z" fill="#414141"/>
<path d="M7.35454 28.8361C7.44761 28.7377 7.56674 28.7341 7.66726 28.8236L10.5636 31.3831C10.6659 31.4726 10.6697 31.5872 10.5766 31.6838L9.92512 32.364C9.82646 32.4678 9.72037 32.4713 9.61241 32.3765L7.65795 30.6493L6.97296 31.3652L8.45648 32.6772C8.56817 32.7756 8.57934 32.8937 8.47882 32.9976L7.94088 33.5596C7.84781 33.658 7.7231 33.6562 7.61328 33.5596L6.12975 32.2476L5.42615 32.985L7.3806 34.7122C7.51835 34.834 7.52951 34.9915 7.41225 35.1114L6.80171 35.7504C6.71051 35.8452 6.58952 35.847 6.489 35.7575L3.53312 33.1479C3.43074 33.0584 3.4233 32.9474 3.51637 32.849L7.35454 28.8361Z" fill="#414141"/>
<path d="M13.6204 37.2577C13.6129 37.5423 13.5292 37.8089 13.3672 38.0577C13.0601 38.532 12.6618 38.8041 12.1722 38.8757C11.6864 38.9491 11.1559 38.8166 10.5845 38.473L8.57232 37.2666C8.47925 37.2111 8.46249 37.1395 8.51834 37.0536L11.5822 32.3284C11.638 32.2425 11.7125 32.2264 11.8037 32.2819L13.6669 33.3987C14.2123 33.7263 14.5529 34.1057 14.6907 34.5389C14.8284 34.972 14.7503 35.4177 14.4562 35.8723C14.2198 36.2374 13.8065 36.4773 13.3914 36.4898C13.5515 36.7189 13.6278 36.9731 13.6204 37.2577ZM11.2862 37.3561C11.6157 37.5548 11.9545 37.4814 12.1555 37.1718C12.3528 36.8675 12.2653 36.5543 11.934 36.3574L11.0889 35.8508L10.4411 36.8496L11.2862 37.3561ZM12.2374 34.0825L11.6901 34.9255L12.3882 35.3443C12.6692 35.5126 12.9484 35.4535 13.116 35.194C13.2835 34.9344 13.2146 34.6695 12.9335 34.5013L12.2374 34.0825Z" fill="#414141"/>
<path d="M16.4645 35.1866C16.5166 35.0631 16.6245 35.0184 16.753 35.0685L20.4031 36.4771C20.5316 36.5272 20.5781 36.6311 20.526 36.7546L20.1686 37.6119C20.1146 37.7425 20.016 37.7819 19.8801 37.73L17.4156 36.7796L17.0396 37.6817L18.9103 38.403C19.0499 38.4567 19.1039 38.5641 19.0499 38.6948L18.754 39.4035C18.7018 39.527 18.5864 39.5682 18.4468 39.5145L16.5761 38.7932L16.189 39.7221L18.6534 40.6725C18.8284 40.7406 18.8954 40.882 18.8303 41.0359L18.4934 41.8413C18.4431 41.9612 18.3314 42.0042 18.203 41.9541L14.4784 40.5168C14.3499 40.4667 14.3015 40.3665 14.3536 40.243L16.4645 35.1866Z" fill="#414141"/>
<path d="M23.9776 37.3452C24.6142 37.4794 25.0889 37.7694 25.4016 38.2186C25.7143 38.6643 25.8055 39.1887 25.6659 39.7937C25.53 40.3915 25.2192 40.8282 24.7408 41.1057C24.2624 41.3795 23.7077 41.4511 23.0693 41.3169L22.3545 41.1665L21.9971 42.7291C21.9673 42.8579 21.8687 42.9206 21.7253 42.8902L20.6792 42.67C20.5452 42.6414 20.4857 42.5465 20.5136 42.4176L21.7291 37.0964C21.757 36.9747 21.8631 36.9031 21.9897 36.9299L22.5164 37.0409L23.0469 37.1537L23.9776 37.3452ZM23.3038 40.0103C23.5123 40.055 23.7021 40.0246 23.8678 39.9244C24.0372 39.8241 24.1433 39.6738 24.1898 39.4733C24.2363 39.2729 24.2047 39.0939 24.0949 38.9346C23.9906 38.7717 23.8306 38.6679 23.6221 38.6249L22.9687 38.4871L22.6523 39.8742L23.3038 40.0103Z" fill="#414141"/>
<path d="M31.2775 38.1312C31.4078 38.1383 31.4897 38.2314 31.4822 38.3549L31.1695 43.7996C31.1621 43.9321 31.0783 44.009 30.9405 44.0001L29.8721 43.9428C29.7251 43.9357 29.6469 43.8497 29.6543 43.7173L29.7474 42.0957L29.1257 42.0635L28.1373 43.6708C28.0498 43.8068 27.994 43.8444 27.873 43.8372L26.624 43.771C26.49 43.7638 26.423 43.6314 26.4956 43.5186L27.6738 41.6679C27.0968 41.2956 26.7841 40.671 26.8269 39.9353C26.8623 39.3214 27.0912 38.8382 27.5175 38.4891C27.9437 38.1365 28.4854 37.9808 29.1369 38.0148L31.0038 38.1133L31.2775 38.1312ZM29.82 40.8392L29.9038 39.3769L29.1238 39.3357C28.9061 39.325 28.7236 39.3823 28.5784 39.5076C28.4333 39.6328 28.3532 39.7975 28.3402 40.0069C28.329 40.2163 28.3886 40.3953 28.5189 40.551C28.6529 40.7032 28.8279 40.7855 29.0401 40.7963L29.82 40.8392Z" fill="#414141"/>
<path d="M37.8849 37.5528C37.9891 37.5402 38.0487 37.5868 38.0617 37.6906L38.7504 43.2177C38.7635 43.3215 38.7151 43.3788 38.6127 43.3913L37.4382 43.5273C37.3339 43.5398 37.2744 43.4933 37.2613 43.3895L36.9877 41.1933L34.7168 41.4547L34.9904 43.6508C35.0035 43.7546 34.9551 43.8119 34.8527 43.8244L33.6819 43.9587C33.5739 43.9712 33.5144 43.9247 33.5013 43.8209L32.8126 38.2938C32.7996 38.19 32.848 38.1327 32.9559 38.1202L34.1268 37.9859C34.231 37.9734 34.2906 38.0199 34.3036 38.1237L34.5549 40.1409L36.8258 39.8796L36.5745 37.8624C36.5615 37.7586 36.6098 37.7013 36.7122 37.6888L37.8849 37.5528Z" fill="#414141"/>
<path d="M39.7982 38.9773C39.8317 38.5638 39.9396 38.1861 40.1183 37.8461C40.3008 37.5042 40.552 37.1964 40.8741 36.9279C41.1942 36.6558 41.5609 36.4554 41.9779 36.3229C42.3948 36.1905 42.8136 36.1421 43.2362 36.1779C43.6606 36.2084 44.0533 36.3122 44.407 36.484C44.7644 36.654 45.0864 36.8957 45.3656 37.2089C45.6485 37.5167 45.857 37.8693 45.9947 38.2703C46.1771 38.8019 46.2106 39.3334 46.0971 39.8597C45.9836 40.3877 45.7434 40.853 45.3656 41.2575C44.9933 41.6602 44.528 41.9466 43.9714 42.1238C43.5545 42.2563 43.1356 42.3046 42.7112 42.2742C42.285 42.2402 41.8922 42.1364 41.5349 41.9663C41.1812 41.7945 40.861 41.5546 40.58 41.2486C40.3026 40.9389 40.0923 40.5863 39.9564 40.189C39.8168 39.7881 39.7665 39.3853 39.7982 38.9773ZM42.218 40.6597C42.6256 40.8566 43.0519 40.8817 43.4968 40.7403C43.9379 40.6007 44.2599 40.3358 44.4665 39.9456C44.6713 39.5536 44.7048 39.1509 44.5577 38.7267C44.4107 38.2989 44.1333 37.9893 43.7257 37.7924C43.3181 37.5955 42.8937 37.5651 42.4544 37.7047C42.0132 37.8443 41.6875 38.1128 41.4827 38.5047C41.278 38.8967 41.2463 39.3048 41.3934 39.7308C41.5386 40.1568 41.8122 40.4628 42.218 40.6597Z" fill="#414141"/>
<path d="M49.9468 32.774C50.0473 32.7185 50.172 32.7561 50.2372 32.8635L53.0665 37.5815C53.1279 37.6818 53.0944 37.8124 52.9883 37.8697L52.0502 38.3888C51.9459 38.4478 51.8175 38.4102 51.7561 38.31L50.8012 36.7188C50.6839 37.1037 50.3973 37.4706 49.9933 37.6961C49.3698 38.0415 48.7481 38.131 48.1301 37.9682C47.5103 37.8017 47.0096 37.4026 46.6298 36.7689L45.7717 35.3371C45.7103 35.2368 45.7382 35.1044 45.8369 35.0507L46.7676 34.5352C46.883 34.4708 47.0189 34.503 47.0821 34.6104L47.9384 36.0387C48.266 36.5846 48.7965 36.7224 49.3661 36.4074C49.6527 36.2481 49.8277 36.0441 49.904 35.7935C49.9803 35.5429 49.9412 35.2852 49.7849 35.0238L48.9249 33.5884C48.8635 33.4881 48.8951 33.3539 48.9975 33.2984L49.9468 32.774Z" fill="#414141"/>
<path d="M59.2314 32.6C59.3747 32.634 59.4436 32.7628 59.3356 32.8559L58.3007 33.7455C58.2356 33.801 58.1574 33.826 58.0736 33.8153L55.3876 33.1459L54.7455 33.6971L56.2309 35.2955C56.3034 35.3742 56.2997 35.4476 56.2215 35.5139L55.3337 36.2781C55.2518 36.3479 55.1754 36.3443 55.1029 36.2656L51.2498 32.1185C51.1809 32.0433 51.1846 31.9699 51.2647 31.9001L52.1526 31.1359C52.2307 31.0696 52.3071 31.0732 52.3778 31.1484L53.7924 32.6716L54.295 32.2402L54.0586 29.6986C54.0437 29.5447 54.0921 29.482 54.2019 29.3872L55.2276 28.5066C55.343 28.4081 55.4695 28.4833 55.4826 28.6426L55.7599 31.748L59.2314 32.6Z" fill="#414141"/>
<path d="M63.8453 26.6724C63.9886 26.7064 64.0463 26.8084 63.9533 26.9373L63.2701 27.8716C63.2031 27.9629 63.0747 28.0005 62.9518 27.9718L62.1366 27.7445L60.9173 29.4109L61.4143 30.066C61.4907 30.1572 61.4962 30.2897 61.4218 30.3899L60.7405 31.3206C60.6512 31.4424 60.5339 31.437 60.4446 31.3117L57.0959 26.4218C57.0215 26.3073 57.0252 26.1766 57.0922 26.0853L57.6004 25.3909C57.6674 25.2996 57.8014 25.2566 57.9261 25.287L63.8453 26.6724ZM60.13 28.3763L60.8559 27.383L58.9778 26.855L60.13 28.3763Z" fill="#414141"/>
</svg>
