<svg width="100" height="10" viewBox="0 0 100 10" fill="none" xmlns="http://www.w3.org/2000/svg">
<g clip-path="url(#clip0_2253_37571)">
<path fill-rule="evenodd" clip-rule="evenodd" d="M18.241 0.369455L10.3876 7.77955C10.1121 8.03944 10.3173 8.46912 10.7168 8.46912H18.4056C18.5311 8.46912 18.6328 8.37775 18.6328 8.26504V0.510156C18.6328 0.3259 18.3824 0.23599 18.241 0.369455ZM8.24523 2.22L0.391843 9.6301C0.250394 9.76356 0 9.67365 0 9.48939V1.73452C0 1.6218 0.10174 1.53043 0.227242 1.53043H7.91603C8.31554 1.53043 8.52067 1.96011 8.24523 2.22ZM49.8157 2.41962C49.5623 2.29069 49.2592 2.17955 48.9065 2.0773C48.2954 1.90392 47.3812 1.73053 46.1491 1.73053C43.6003 1.73053 42.6166 2.63745 42.6166 3.74888C42.6166 4.78028 43.2625 5.57161 46.0199 5.8339C47.6694 5.99839 48.0271 6.05174 48.0271 6.37183C48.0271 6.78083 47.2967 6.89642 46 6.89642C45.2101 6.89642 44.5542 6.78528 44.0971 6.66525C43.8239 6.59856 43.5854 6.51854 43.3767 6.43407L42.393 7.71887C42.6265 7.85669 42.9197 7.98117 43.2724 8.09231C43.8736 8.28348 44.7977 8.4613 46.0994 8.4613C48.4643 8.4613 50.1486 7.90115 50.1486 6.37183C50.1486 5.10926 49.135 4.58022 46.4273 4.30903C45.1902 4.189 44.7381 4.09119 44.7381 3.74888C44.7381 3.411 45.2895 3.29542 46.2484 3.29542C47.0086 3.29542 47.6495 3.39767 48.1066 3.49992C48.3749 3.55771 48.6183 3.62884 48.832 3.70442L49.8157 2.41962ZM31.7316 2.83751L27.6774 6.71859H31.7316V8.28348H24.2543V7.35433L28.3034 3.47324H24.3536V1.90836H31.7316V2.83751ZM41.9387 8.28348H39.6831L39.0521 7.25208H35.2762L34.6452 8.28348H32.3896L36.2997 1.90836H38.0286L41.9387 8.28348ZM38.1777 5.82057L37.1642 4.16232L36.1506 5.82057H38.1777ZM60.6538 5.09592C60.6538 6.95866 59.1136 8.4613 55.755 8.4613C52.3964 8.4613 50.8563 6.95866 50.8563 5.09592C50.8563 3.23318 52.3964 1.73053 55.755 1.73053C59.1136 1.73053 60.6538 3.23318 60.6538 5.09592ZM52.9777 5.09592C52.9777 6.00284 53.5739 6.89642 55.755 6.89642C57.9361 6.89642 58.5323 6.00284 58.5323 5.09592C58.5323 4.189 57.9361 3.29542 55.755 3.29542C53.5739 3.29542 52.9777 4.189 52.9777 5.09592ZM62.9662 1.90836H60.7106L64.5213 8.28348H66.2503L70.061 1.90836H67.8054L65.3858 6.02951L62.9662 1.90836ZM76.8698 2.0773C77.2225 2.17955 77.5256 2.29069 77.779 2.41962L76.7953 3.70442C76.5816 3.62884 76.3382 3.55771 76.0699 3.49992C75.6128 3.39767 74.9719 3.29542 74.2117 3.29542C73.2529 3.29542 72.7014 3.411 72.7014 3.74888C72.7014 4.09119 73.1535 4.189 74.3906 4.30903C77.0983 4.58022 78.1119 5.10926 78.1119 6.37183C78.1119 7.90115 76.4276 8.4613 74.0627 8.4613C72.761 8.4613 71.8369 8.28348 71.2357 8.09231C70.883 7.98117 70.5898 7.85669 70.3563 7.71887L71.3401 6.43407C71.5487 6.51854 71.7872 6.59856 72.0605 6.66525C72.5175 6.78528 73.1734 6.89642 73.9633 6.89642C75.2601 6.89642 75.9904 6.78083 75.9904 6.37183C75.9904 6.05174 75.6327 5.99839 73.9832 5.8339C71.2258 5.57161 70.5799 4.78028 70.5799 3.74888C70.5799 2.63745 71.5636 1.73053 74.1124 1.73053C75.3445 1.73053 76.2587 1.90392 76.8698 2.0773ZM81.1199 4.27791V1.90836H79.0183V8.28348H81.1199V6.30959L81.8999 5.73165L84.553 8.28348H87.1216L83.3507 4.66024L87.072 1.90836H84.3245L81.1199 4.27791ZM89.9806 8.28348H87.879V1.90836H89.9806V8.28348ZM93.2172 1.90836H90.738L94.3152 5.75388V8.28348H96.4217V5.75388L99.9989 1.90836H97.5197L95.3685 4.22901L93.2172 1.90836Z" fill="#414141"/>
</g>
<defs>
<clipPath id="clip0_2253_37571">
<rect width="100" height="10" fill="white"/>
</clipPath>
</defs>
</svg>
