<svg width="36" height="36" viewBox="0 0 36 36" fill="none" xmlns="http://www.w3.org/2000/svg">
<rect x="0.5" y="0.5" width="35" height="35" rx="17.5" stroke="#F3F2F1"/>
<path fill-rule="evenodd" clip-rule="evenodd" d="M12.3333 22.6665C12.3333 21.0096 13.6764 19.6665 15.3333 19.6665H20.6666C22.3234 19.6665 23.6666 21.0096 23.6666 22.6665V23.9998C23.6666 24.1839 23.5173 24.3332 23.3333 24.3332C23.1492 24.3332 22.9999 24.1839 22.9999 23.9998V22.6665C22.9999 21.3778 21.9552 20.3332 20.6666 20.3332H15.3333C14.0446 20.3332 12.9999 21.3778 12.9999 22.6665V23.9998C12.9999 24.1839 12.8507 24.3332 12.6666 24.3332C12.4825 24.3332 12.3333 24.1839 12.3333 23.9998V22.6665Z" fill="#414141"/>
<path fill-rule="evenodd" clip-rule="evenodd" d="M15 14.6665C15 13.0096 16.3431 11.6665 18 11.6665C19.6569 11.6665 21 13.0096 21 14.6665C21 16.3234 19.6569 17.6665 18 17.6665C16.3431 17.6665 15 16.3234 15 14.6665ZM18 12.3332C16.7113 12.3332 15.6667 13.3778 15.6667 14.6665C15.6667 15.9552 16.7113 16.9998 18 16.9998C19.2887 16.9998 20.3333 15.9552 20.3333 14.6665C20.3333 13.3778 19.2887 12.3332 18 12.3332Z" fill="#414141"/>
</svg>
